<svg xmlns="http://www.w3.org/2000/svg" viewBox="0 0 32 32" role="img" aria-label="Cardioprenatal">
  <rect width="32" height="32" rx="7" fill="#7f0c1a"/>
  <path fill="#fff" d="M7.5 10.2c0-1.55 1.25-2.8 2.8-2.8.85 0 1.65.38 2.1.98.45-.6 1.25-.98 2.1-.98 1.55 0 2.8 1.25 2.8 2.8 0 2.05-2.35 3.82-4.9 6.05L10.3 17.8 7.5 15.5C5.15 13.05 7.5 11.35 7.5 10.2z"/>
  <circle cx="22.5" cy="11" r="3.2" fill="#fff"/>
  <path fill="#fff" d="M17.2 24.5c0-3.1 2.4-5.6 5.3-5.6s5.3 2.5 5.3 5.6v1.5H17.2v-1.5z"/>
</svg>